<?xml version="1.0" standalone="no"?>
<!DOCTYPE svg PUBLIC "-//W3C//DTD SVG 20010904//EN"
 "http://www.w3.org/TR/2001/REC-SVG-20010904/DTD/svg10.dtd">
<svg version="1.0" xmlns="http://www.w3.org/2000/svg"
 width="512.000000pt" height="512.000000pt" viewBox="0 0 512.000000 512.000000"
 preserveAspectRatio="xMidYMid meet">

<g transform="translate(0.000000,512.000000) scale(0.100000,-0.100000)"
fill="#000000" stroke="none">
<path d="M2323 4999 c-169 -16 -364 -62 -508 -119 -691 -274 -1153 -872 -1244
-1610 -16 -121 -13 -387 4 -509 53 -372 209 -716 449 -993 l76 -87 -21 -36
c-17 -29 -20 -44 -14 -83 17 -116 98 -217 218 -272 99 -45 178 -140 269 -321
89 -178 173 -258 313 -295 28 -8 62 -14 76 -14 49 0 151 61 227 137 40 40 95
84 121 98 59 29 131 83 192 142 46 44 47 45 54 22 24 -81 113 -169 209 -207
l49 -19 -48 -36 c-26 -21 -56 -37 -65 -37 -26 0 -65 34 -97 85 -30 48 -64 60
-82 27 -13 -24 7 -66 58 -124 69 -78 145 -85 221 -22 55 47 143 94 176 94 51
0 155 37 211 75 l53 35 62 -21 c38 -13 76 -19 95 -16 24 4 33 2 33 -8 0 -13
-37 -116 -44 -123 -2 -1 -24 18 -49 44 -36 36 -52 45 -74 42 -44 -5 -44 -43 1
-80 20 -16 43 -43 52 -60 14 -27 14 -34 -6 -92 -23 -69 -46 -97 -102 -121 -46
-19 -62 -45 -44 -70 9 -12 21 -16 39 -13 l26 5 -25 -48 c-18 -37 -37 -56 -77
-79 -62 -35 -70 -37 -62 -9 4 11 10 57 15 102 5 55 17 101 34 139 22 47 26 68
24 125 l-3 68 -30 0 c-30 0 -30 -1 -37 -65 -3 -36 -18 -90 -33 -122 -25 -54
-28 -57 -71 -64 -25 -3 -86 -1 -135 5 -50 6 -94 9 -99 6 -15 -10 -12 -51 5
-65 10 -9 61 -15 142 -18 l125 -5 -5 -49 c-8 -63 -43 -126 -77 -136 -14 -4
-88 -7 -165 -7 -154 1 -242 18 -380 76 -106 44 -101 36 -70 120 32 89 65 223
65 264 0 43 -82 125 -108 109 -27 -17 -25 -48 4 -84 27 -32 27 -33 15 -94 -11
-55 -49 -173 -82 -252 -7 -17 -9 -38 -6 -47 13 -35 218 -122 361 -154 99 -22
309 -22 401 1 79 19 191 70 251 115 46 34 100 134 164 304 21 56 54 128 73
159 19 32 45 94 58 139 21 72 28 84 64 109 50 35 161 150 202 210 109 161 176
371 202 631 12 120 26 148 135 274 216 245 317 416 406 684 64 190 74 258 67
456 -5 162 -38 383 -70 471 -33 90 -124 194 -170 194 -18 0 -29 14 -57 73 -48
101 -174 286 -268 393 -234 266 -584 484 -937 584 -247 69 -493 92 -732 69z
m402 -79 c50 -6 125 -17 167 -26 l77 -17 -18 -26 c-35 -50 -71 -130 -96 -217
-30 -102 -32 -152 -8 -161 9 -4 89 4 177 18 213 32 431 33 556 2 143 -36 199
-60 207 -91 6 -24 6 -227 0 -367 -2 -48 -1 -50 25 -53 41 -5 50 28 57 215 l6
161 65 -74 c136 -158 299 -419 284 -458 -8 -20 -1 -20 -65 8 -101 44 -230 58
-336 36 l-48 -10 -101 97 c-219 212 -476 355 -764 425 -83 20 -98 28 -153 77
-215 188 -523 321 -806 347 -40 4 -68 11 -64 15 22 22 278 82 413 98 107 12
319 13 425 1z m416 -95 c105 -36 305 -134 406 -200 47 -31 83 -58 81 -60 -2
-3 -45 3 -94 12 -120 22 -377 22 -502 0 -115 -21 -112 -21 -112 6 1 58 106
267 134 267 7 0 46 -11 87 -25z m-1069 -115 c115 -24 247 -69 343 -117 72 -36
255 -153 255 -162 0 -3 -84 -6 -188 -7 -147 0 -214 -5 -315 -23 -233 -41 -477
-118 -649 -205 -79 -39 -78 -40 -78 72 1 150 49 292 131 386 72 81 91 87 259
82 91 -3 181 -13 242 -26z m-668 -196 c-34 -92 -50 -231 -38 -321 l10 -73 -60
-37 c-34 -20 -89 -56 -124 -81 -35 -24 -66 -42 -69 -38 -12 12 -15 213 -4 286
11 75 11 75 80 141 59 58 216 189 225 189 2 0 -7 -30 -20 -66z m1341 -175 c3
-4 -14 -35 -38 -70 -139 -200 -308 -561 -381 -812 -13 -46 -20 -57 -34 -53 -9
3 -34 8 -55 12 -33 6 -38 10 -33 28 33 138 32 271 -4 355 -13 28 -21 53 -19
55 2 1 38 31 79 66 41 35 135 108 208 163 133 99 150 120 117 147 -21 18 -39
9 -180 -98 -162 -121 -324 -262 -467 -405 -134 -134 -114 -130 -205 -43 -29
28 -53 55 -53 62 0 20 101 113 149 136 33 16 64 23 111 23 72 0 90 7 90 35 0
28 -30 40 -99 40 -94 0 -163 -31 -243 -110 l-68 -66 -24 30 c-13 17 -38 57
-56 89 -24 43 -37 57 -55 57 -45 0 -49 -24 -16 -87 17 -32 49 -82 71 -111 39
-52 40 -53 29 -98 -18 -72 -6 -175 28 -244 l30 -60 -71 -95 c-70 -94 -71 -95
-74 -63 -13 137 -59 238 -174 382 -83 105 -158 227 -158 258 0 8 35 40 78 71
297 213 634 347 1012 402 95 14 492 17 505 4z m409 -120 c163 -70 316 -173
460 -310 l81 -77 -69 -7 c-88 -10 -190 7 -278 46 -76 33 -98 29 -98 -18 0 -47
168 -103 313 -105 l88 -1 -43 -44 c-24 -25 -70 -64 -103 -88 -65 -47 -218
-125 -245 -125 -12 0 -22 23 -38 90 -49 200 -164 470 -273 641 -27 42 -49 79
-49 82 0 9 160 -43 254 -84z m-283 -16 c27 -43 77 -133 111 -199 l61 -122 -41
-36 c-71 -65 -86 -109 -92 -278 -3 -86 -10 -152 -16 -158 -20 -20 -153 -31
-324 -28 -93 2 -172 6 -175 10 -9 9 54 200 111 335 81 195 280 553 307 553 4
0 30 -35 58 -77z m-1835 -111 c1 -59 6 -125 11 -147 l8 -40 -172 -171 c-95
-95 -173 -166 -173 -159 0 28 64 194 113 295 46 95 193 330 206 330 3 0 7 -48
7 -108z m59 -304 c13 -42 73 -133 151 -229 116 -143 163 -263 164 -417 0 -60
-3 -68 -70 -181 -38 -64 -102 -184 -141 -265 -84 -171 -72 -170 -171 -21 -117
175 -243 469 -288 675 -17 76 -17 87 -4 107 51 79 316 353 341 353 6 0 15 -10
18 -22z m3041 -32 c65 -31 72 -37 78 -70 5 -24 1 -52 -10 -85 -21 -57 -12
-102 32 -167 30 -43 29 -83 -4 -176 -29 -80 -106 -247 -114 -248 -5 0 -8 16
-8 35 0 59 -37 228 -74 338 -39 117 -99 244 -157 328 -54 80 -54 83 11 89 85
8 168 -7 246 -44z m-1032 -46 c41 -129 68 -242 59 -250 -4 -4 -46 -16 -93 -27
l-85 -19 1 135 c1 75 6 148 12 162 14 35 62 90 73 84 4 -3 20 -41 33 -85z
m1243 63 c59 -63 89 -160 125 -408 16 -108 4 -384 -21 -481 -69 -276 -188
-487 -428 -760 -113 -129 -139 -185 -153 -329 -31 -312 -120 -527 -290 -697
-92 -92 -150 -127 -211 -128 -29 0 -99 17 -99 23 0 1 14 29 30 61 34 66 37 88
15 106 -27 22 -48 5 -85 -68 -21 -40 -50 -86 -64 -101 -69 -72 -203 -110 -315
-90 -107 20 -189 78 -234 164 -24 48 -38 143 -29 202 10 60 1 83 -33 83 -27 0
-45 -40 -45 -105 0 -87 -122 -215 -280 -295 -25 -12 -67 -47 -95 -78 -63 -71
-157 -132 -201 -132 -18 0 -59 10 -91 22 -87 32 -158 109 -219 234 -92 192
-188 306 -298 359 -114 54 -186 144 -186 232 0 32 19 38 48 15 81 -64 211
-146 316 -201 155 -80 247 -145 331 -231 39 -41 75 -70 84 -68 9 2 39 45 66
96 82 153 155 230 278 292 l70 36 27 77 c30 84 85 172 133 213 62 52 106 67
222 74 61 4 111 6 113 5 2 -2 -4 -29 -14 -61 -27 -95 2 -221 65 -278 12 -11
21 -26 21 -35 0 -34 51 -123 95 -165 93 -91 224 -111 321 -49 27 18 74 41 105
53 68 25 139 85 177 148 30 53 32 92 17 347 l-7 130 53 40 c78 59 112 112 117
184 3 47 0 69 -18 105 l-22 46 32 56 c77 133 199 255 322 319 l68 36 0 55 c0
62 27 147 81 256 54 108 88 214 91 285 2 53 -2 65 -30 108 -35 52 -41 95 -17
115 12 10 14 30 8 111 -5 89 -4 99 11 99 9 0 29 -12 43 -27z m-2207 -31 c21
-77 4 -292 -24 -292 -18 0 -213 97 -221 109 -8 14 211 235 225 226 5 -3 14
-22 20 -43z m1676 -77 c137 -211 210 -451 229 -751 l7 -111 -44 -26 c-101 -60
-219 -181 -288 -296 l-38 -63 -7 33 c-12 56 -42 104 -90 147 -81 71 -184 90
-274 51 -42 -18 -54 -19 -90 -9 -109 29 -254 -55 -283 -166 -7 -24 -16 -44
-20 -44 -4 0 -26 -16 -47 -35 -94 -85 -93 -233 1 -340 60 -68 48 -75 -130 -85
-150 -8 -208 -25 -287 -86 -54 -41 -120 -136 -157 -225 -32 -80 -34 -82 -93
-111 -79 -40 -218 -180 -263 -265 -18 -35 -36 -63 -39 -63 -3 0 -31 23 -62 52
-73 67 -186 139 -339 218 l-122 63 78 38 c141 69 241 203 266 360 6 38 15 69
21 69 7 0 43 -11 83 -24 39 -13 106 -32 149 -41 43 -9 86 -19 95 -21 16 -5 18
-24 20 -167 l3 -162 30 0 30 0 6 235 c4 129 12 312 19 407 7 94 10 179 6 188
-4 11 -15 15 -33 13 -35 -4 -38 -18 -53 -253 -7 -99 -14 -181 -15 -183 -5 -5
-176 37 -260 65 -197 64 -413 189 -558 324 -68 63 -78 75 -72 97 9 38 98 223
162 338 l56 101 50 -96 c105 -202 117 -228 141 -306 14 -44 31 -111 37 -150
15 -87 39 -113 73 -79 19 19 15 56 -20 193 -29 111 -72 214 -141 334 -35 59
-54 107 -62 148 -12 69 -18 56 108 232 l55 78 19 -38 c29 -58 65 -91 120 -109
64 -21 138 -14 203 19 53 27 132 104 158 155 9 18 18 32 21 32 22 0 105 -23
105 -30 0 -4 -15 -72 -34 -151 -48 -201 -70 -315 -63 -333 9 -22 54 -20 65 2
5 9 15 46 21 82 12 63 62 278 81 350 l9 35 239 0 239 0 -43 -48 c-136 -151
-234 -365 -234 -510 0 -67 40 -180 91 -253 25 -37 36 -45 57 -42 40 4 39 36
-3 99 -121 182 -75 387 143 647 34 41 70 87 79 103 12 20 28 31 53 35 19 3 72
14 118 25 46 10 85 19 87 19 11 0 29 -195 34 -360 6 -194 6 -195 29 -198 13
-2 30 2 39 10 14 11 15 36 10 203 -6 168 -16 284 -32 352 -4 18 1 24 33 34 61
20 193 88 258 135 59 42 184 168 184 185 0 26 27 -1 76 -76z m-2089 -167 c-23
-26 -45 -48 -48 -48 -20 0 -51 123 -42 173 l5 36 63 -56 63 -56 -41 -49z m240
-64 c68 -32 123 -64 123 -70 0 -21 -92 -115 -133 -136 -31 -15 -54 -19 -99
-16 -72 5 -101 30 -125 104 l-16 53 54 65 c30 36 59 64 64 63 6 -2 65 -30 132
-63z m-1287 -161 c50 -225 226 -584 367 -751 l45 -53 -50 -152 c-27 -84 -58
-186 -67 -227 -10 -41 -21 -79 -25 -83 -9 -10 -84 116 -144 244 -124 260 -187
581 -172 874 7 148 15 217 26 210 3 -2 12 -30 20 -62z m2808 -702 c71 -37 112
-97 112 -166 0 -19 6 -39 13 -44 6 -6 26 -22 44 -36 62 -50 61 -134 -2 -203
-38 -42 -43 -39 -69 29 -24 65 -75 120 -148 159 -116 62 -282 52 -380 -23 -49
-37 -91 -95 -109 -149 -10 -32 -14 -36 -27 -25 -23 19 -42 72 -42 119 0 62 28
107 81 132 41 20 44 24 49 68 12 99 137 168 224 123 39 -21 53 -19 88 10 37
32 111 34 166 6z m-2078 -376 c52 -35 130 -80 173 -101 58 -29 77 -43 77 -59
-1 -42 -29 -155 -50 -196 -52 -101 -181 -198 -286 -214 -38 -6 -41 -4 -126 74
-47 45 -109 110 -137 144 l-50 64 24 109 c27 118 40 162 87 296 l30 87 82 -70
c44 -39 124 -99 176 -134z m1937 70 c68 -20 126 -65 160 -122 23 -40 28 -59
28 -123 0 -64 -5 -85 -31 -140 -28 -56 -75 -120 -89 -120 -3 0 -25 15 -49 34
-78 60 -180 70 -266 26 l-38 -19 -15 32 c-24 49 -36 115 -37 188 0 180 159
297 337 244z m-387 -420 c35 -105 104 -163 141 -118 20 23 72 43 115 43 47 0
93 -22 134 -65 19 -19 44 -35 56 -35 13 0 46 21 77 50 l55 50 12 -65 c17 -93
2 -143 -64 -211 -37 -38 -66 -56 -106 -69 -30 -10 -73 -30 -95 -45 -59 -39
-73 -42 -130 -26 -75 23 -132 68 -161 129 -13 29 -24 62 -24 75 0 12 -12 32
-26 45 -47 40 -67 93 -62 162 5 51 38 145 52 145 3 0 14 -29 26 -65z"/>
<path d="M3529 1250 c-25 -25 -28 -33 -19 -50 14 -27 46 -25 75 5 29 28 31 38
9 59 -22 22 -31 20 -65 -14z"/>
<path d="M2803 1073 c-7 -2 -13 -18 -13 -33 0 -25 5 -31 40 -41 31 -9 43 -9
55 1 26 22 18 50 -20 66 -36 15 -42 16 -62 7z"/>
<path d="M2155 2677 c-21 -16 -15 -61 11 -71 39 -15 73 41 42 72 -16 16 -30
15 -53 -1z"/>
<path d="M3081 2001 c-15 -27 6 -50 51 -58 42 -6 68 8 68 38 0 39 -100 56
-119 20z"/>
<path d="M3316 2007 c-11 -8 -17 -23 -14 -38 2 -20 9 -25 40 -27 63 -5 100 32
66 66 -16 16 -70 15 -92 -1z"/>
<path d="M2416 744 c-26 -25 -19 -39 45 -98 47 -44 67 -56 88 -54 36 4 42 49
9 70 -13 8 -42 34 -66 57 -47 46 -54 48 -76 25z"/>
</g>
</svg>
