<?xml version="1.0" standalone="no"?>
<!DOCTYPE svg PUBLIC "-//W3C//DTD SVG 20010904//EN"
 "http://www.w3.org/TR/2001/REC-SVG-20010904/DTD/svg10.dtd">
<svg version="1.0" xmlns="http://www.w3.org/2000/svg"
 width="490.000000pt" height="180.000000pt" viewBox="0 0 490.000000 180.000000"
 preserveAspectRatio="xMidYMid meet">

<g transform="translate(0.000000,180.000000) scale(0.100000,-0.100000)"
fill="#000000" stroke="none">
<path d="M765 1764 c-11 -2 -45 -9 -75 -15 -30 -6 -97 -31 -149 -56 -177 -85
-312 -254 -357 -448 -22 -97 -15 -286 15 -372 24 -70 79 -168 121 -216 21 -25
26 -39 23 -64 -6 -39 23 -85 66 -103 32 -13 67 -53 96 -110 26 -53 75 -99 111
-106 36 -7 62 4 116 50 82 68 109 88 112 85 2 -2 9 -14 15 -26 6 -13 25 -30
42 -39 25 -12 28 -18 18 -30 -16 -20 -35 -17 -53 7 -8 12 -20 19 -26 17 -18
-6 28 -58 52 -58 11 0 32 8 46 19 15 10 43 22 62 26 19 4 45 13 56 21 14 8 35
11 58 7 40 -6 40 -6 25 -34 -10 -20 -11 -20 -30 -3 -24 22 -38 10 -16 -14 10
-10 17 -28 17 -40 0 -24 -32 -62 -52 -62 -6 0 -4 -6 7 -13 17 -13 17 -15 -3
-35 -31 -31 -42 -27 -42 12 0 19 5 38 10 41 13 8 13 75 -1 75 -5 0 -8 -4 -5
-9 10 -15 -15 -71 -32 -72 -10 -1 -32 -1 -49 0 -18 2 -33 -2 -33 -8 0 -6 12
-12 28 -13 15 0 34 -1 42 -2 25 -2 24 -42 -2 -60 -26 -18 -76 -20 -133 -5 -73
19 -97 31 -92 48 31 107 32 111 14 128 -20 20 -32 12 -19 -14 7 -12 4 -35 -9
-73 -22 -68 -18 -74 73 -101 89 -27 169 -22 231 14 39 23 47 35 90 136 35 83
57 120 85 145 47 43 88 122 103 198 l12 58 82 0 82 0 28 75 27 75 147 0 147 0
26 -72 25 -73 93 -3 c72 -2 91 0 87 10 -2 7 -71 176 -152 376 l-148 363 -81
-3 -80 -3 -34 -85 c-39 -97 -52 -117 -52 -76 0 51 -23 108 -52 129 -16 12 -42
46 -59 77 -18 30 -66 89 -108 130 -86 85 -176 137 -291 169 -73 21 -215 35
-255 25z m222 -38 c3 -3 -5 -30 -17 -60 -31 -74 -25 -85 42 -75 86 12 161 10
216 -6 l52 -16 0 -74 c0 -43 4 -75 10 -75 9 0 14 47 10 98 -1 12 3 22 9 22 20
0 130 -164 118 -176 -2 -3 -25 0 -50 6 -25 5 -58 7 -74 4 -23 -5 -36 1 -68 32
-61 57 -135 101 -220 129 -42 14 -97 42 -122 61 -66 50 -98 65 -192 89 l-83
21 43 13 c63 19 173 27 253 19 37 -4 71 -9 73 -12z m149 -55 c106 -55 106 -56
-37 -56 -71 0 -129 1 -129 1 0 7 34 82 42 91 11 13 56 0 124 -36z m-464 -2
c29 -5 67 -15 83 -21 36 -13 135 -70 135 -78 0 -3 -32 -6 -71 -7 -87 -2 -206
-27 -278 -59 -29 -13 -57 -24 -62 -24 -14 0 -10 87 5 124 29 70 79 87 188 65z
m-223 -103 c-6 -25 -9 -59 -6 -75 5 -25 1 -32 -33 -55 -58 -38 -63 -35 -58 36
4 59 6 64 53 105 27 23 50 41 52 39 2 -2 -1 -24 -8 -50z m471 -30 c0 -3 -18
-33 -39 -68 -22 -35 -56 -106 -76 -158 -21 -52 -38 -96 -40 -98 -1 -1 -10 1
-19 4 -15 6 -17 15 -12 48 4 23 2 55 -3 73 -10 35 -1 46 92 116 26 19 44 38
38 41 -12 8 -110 -65 -193 -143 -36 -33 -70 -61 -75 -61 -18 0 -44 37 -37 54
8 22 56 46 89 46 15 0 24 4 20 10 -16 25 -103 -1 -125 -37 -9 -16 -11 -16 -19
-3 -24 38 -40 54 -47 48 -4 -4 5 -25 19 -47 17 -25 24 -46 20 -61 -3 -12 0
-39 7 -60 11 -34 10 -40 -11 -70 l-24 -32 -9 39 c-5 21 -31 69 -57 107 -27 39
-49 77 -49 86 0 33 157 117 281 150 66 17 269 29 269 16z m91 -128 c9 -23 8
-31 -10 -54 -15 -20 -21 -41 -21 -80 0 -30 -5 -56 -12 -60 -18 -11 -165 -18
-171 -7 -9 14 65 192 107 257 l38 59 29 -44 c15 -24 34 -56 40 -71z m64 83
c61 -29 165 -107 165 -124 0 -10 -87 -4 -130 9 -22 7 -24 6 -11 -9 7 -9 40
-22 73 -29 l60 -12 -29 -24 c-41 -34 -104 -65 -112 -55 -4 4 -15 35 -25 68
-10 33 -35 93 -56 133 -35 68 -36 72 -16 72 11 0 48 -13 81 -29z m-798 -163
c-33 -32 -62 -57 -65 -54 -6 7 61 148 90 189 l23 32 5 -54 6 -54 -59 -59z m96
-15 c92 -134 105 -184 64 -249 -13 -22 -37 -64 -52 -94 l-27 -54 -20 24 c-44
54 -118 227 -118 274 0 23 95 136 114 136 7 0 24 -17 39 -37z m340 10 c6 -35
-3 -93 -15 -93 -8 0 -68 28 -77 36 -6 5 70 84 80 84 4 0 9 -12 12 -27z m340
-30 c9 -31 15 -58 14 -60 -2 -1 -18 -6 -35 -9 l-32 -6 0 54 c0 48 12 78 31 78
3 0 13 -26 22 -57z m355 41 c20 -14 22 -22 17 -54 -4 -23 -2 -41 4 -45 18 -11
11 -67 -13 -115 l-24 -45 -14 65 c-7 36 -29 98 -49 138 l-37 72 47 0 c27 0 56
-7 69 -16z m76 -7 c9 -12 21 -54 27 -92 l12 -70 -73 -185 c-40 -102 -88 -206
-105 -231 -24 -35 -34 -63 -38 -107 -12 -116 -78 -233 -146 -262 -44 -18 -62
-8 -55 32 4 30 4 31 -8 13 -39 -59 -65 -75 -120 -75 -41 0 -60 5 -77 21 -27
25 -41 60 -41 100 0 16 -4 29 -10 29 -5 0 -10 -11 -10 -24 0 -32 -33 -71 -86
-102 -24 -14 -44 -30 -44 -35 0 -5 -15 -18 -32 -29 -55 -34 -109 -7 -150 75
-33 64 -69 105 -108 125 -35 18 -71 73 -57 86 3 3 25 -7 49 -24 24 -16 66 -41
93 -55 28 -14 68 -42 90 -62 22 -20 41 -32 43 -27 11 35 67 101 100 120 24 13
42 32 46 47 3 13 20 40 37 60 28 31 37 35 80 35 48 0 48 0 43 -30 -7 -35 33
-122 72 -157 32 -30 63 -29 124 2 71 36 84 60 76 142 -7 65 -6 67 25 99 28 29
31 38 26 73 -3 27 0 48 13 68 22 37 79 91 102 99 10 3 18 14 18 25 0 12 14 51
30 89 31 70 37 109 21 138 -11 20 -2 112 10 112 5 0 15 -10 23 -23z m-168 -69
c28 -56 54 -156 54 -213 0 -35 -5 -43 -36 -65 -20 -13 -48 -41 -62 -62 -13
-21 -26 -38 -29 -38 -2 0 -8 11 -13 25 -12 32 -65 59 -99 50 -14 -3 -40 -6
-57 -5 -33 0 -84 -33 -84 -55 0 -8 -9 -19 -20 -25 -27 -15 -37 -73 -16 -105 9
-13 16 -28 16 -33 0 -5 -27 -12 -60 -16 -69 -8 -109 -36 -140 -96 -11 -21 -35
-47 -53 -59 -19 -12 -46 -39 -61 -61 l-27 -41 -47 34 c-26 19 -66 44 -90 56
-23 12 -42 23 -42 25 0 2 16 13 35 25 39 23 75 75 75 108 0 32 9 34 73 15 l57
-17 0 -52 c0 -28 5 -55 10 -58 6 -4 10 12 10 42 0 26 3 92 7 146 4 63 2 97 -4
97 -6 0 -13 -32 -15 -70 -3 -39 -8 -73 -11 -76 -3 -3 -38 4 -77 17 -76 24
-168 78 -210 123 l-25 27 39 75 c21 41 41 74 44 74 12 -1 72 -135 79 -174 3
-20 10 -39 16 -43 21 -13 -4 93 -38 163 -19 39 -35 76 -35 82 0 12 49 92 56
92 2 0 14 -11 28 -25 14 -14 35 -25 46 -25 31 0 75 25 93 54 12 17 22 23 37
19 18 -5 20 -11 14 -32 -24 -91 -31 -141 -19 -141 7 0 19 34 29 80 l17 80 85
0 84 0 -31 -42 c-41 -57 -59 -102 -59 -150 0 -45 24 -98 45 -98 12 0 11 6 -5
33 -36 59 -22 126 45 214 27 35 47 51 78 60 23 7 43 10 46 8 2 -3 9 -45 15
-95 5 -49 14 -90 18 -90 10 0 9 66 -1 138 l-8 53 60 31 c33 18 71 47 86 65 30
38 33 36 77 -49z m-751 22 c17 -19 18 -22 2 -37 -20 -20 -25 -16 -33 25 -7 37
5 41 31 12z m123 -89 c-5 -23 -64 -54 -88 -46 -12 4 -26 18 -31 32 -8 21 -6
30 12 49 l21 23 44 -22 c27 -13 44 -27 42 -36z m-475 -41 c10 -46 74 -180 107
-221 l29 -36 -26 -83 c-24 -78 -26 -83 -40 -64 -24 30 -61 117 -77 181 -14 56
-19 113 -17 216 1 52 15 56 24 7z m1534 -95 l41 -105 -89 0 -89 0 21 53 c12
28 30 76 41 105 12 28 24 52 28 52 4 0 25 -47 47 -105z m-572 -127 c16 -7 28
-23 32 -39 3 -16 14 -36 24 -45 22 -19 25 -54 7 -72 -16 -16 -28 -15 -28 1 0
7 -13 26 -29 41 -57 55 -154 41 -182 -27 -12 -28 -13 -28 -26 -11 -20 27 -16
52 12 76 14 12 25 27 25 35 0 20 47 46 73 40 12 -4 29 -2 37 3 19 12 24 12 55
-2z m-761 -96 c26 -22 67 -49 91 -61 25 -12 45 -28 45 -34 -1 -22 -37 -92 -57
-110 -11 -10 -36 -20 -55 -23 -30 -5 -38 -1 -77 41 -39 42 -42 50 -36 83 6 37
37 142 41 142 1 0 23 -17 48 -38z m737 -25 c29 -19 34 -29 37 -68 2 -34 -2
-52 -18 -72 -20 -26 -22 -26 -46 -11 -17 11 -37 15 -64 11 -44 -6 -49 1 -52
68 -1 31 5 43 30 67 39 34 68 35 113 5z m-93 -161 c37 5 51 2 61 -10 17 -20
35 -20 51 -1 17 20 30 10 30 -23 0 -40 -21 -65 -78 -91 -44 -21 -52 -22 -78
-10 -17 8 -40 35 -56 64 -31 58 -32 64 -17 102 l11 28 14 -33 c14 -32 15 -33
62 -26z"/>
<path d="M1187 473 c-12 -11 -8 -23 8 -23 8 0 15 7 15 15 0 16 -12 20 -23 8z"/>
<path d="M942 401 c4 -13 18 -16 19 -4 0 4 -5 9 -11 12 -7 2 -11 -2 -8 -8z"/>
<path d="M715 950 c3 -5 8 -10 11 -10 2 0 4 5 4 10 0 6 -5 10 -11 10 -5 0 -7
-4 -4 -10z"/>
<path d="M1040 720 c0 -5 7 -10 15 -10 8 0 15 5 15 10 0 6 -7 10 -15 10 -8 0
-15 -4 -15 -10z"/>
<path d="M1110 720 c0 -5 9 -10 20 -10 11 0 20 5 20 10 0 6 -9 10 -20 10 -11
0 -20 -4 -20 -10z"/>
<path d="M2418 1432 l-28 -3 0 -390 0 -389 80 0 80 0 0 389 0 389 -52 4 c-29
1 -65 2 -80 0z"/>
<path d="M3820 1025 l0 -375 169 0 168 0 28 75 27 76 146 -3 146 -3 27 -70 26
-70 92 -3 91 -3 -21 53 c-11 29 -79 198 -151 376 l-131 323 -80 -3 -81 -3 -32
-80 c-194 -477 -245 -600 -254 -609 -7 -7 -10 98 -10 342 l0 352 -80 0 -80 0
0 -375z m585 32 c21 -54 35 -100 32 -103 -2 -3 -41 -4 -85 -2 l-80 3 40 108
c23 60 44 105 48 100 4 -4 24 -52 45 -106z"/>
<path d="M2100 1200 l0 -90 -35 0 -35 0 0 -55 0 -55 35 0 35 0 0 -107 c0 -60
5 -125 11 -146 23 -85 98 -126 194 -108 67 13 71 20 51 89 -18 57 -18 58 -51
54 -42 -5 -47 9 -43 128 l3 85 48 3 47 3 0 54 0 54 -47 3 -48 3 -3 88 -3 87
-79 0 -80 0 0 -90z"/>
<path d="M2748 1119 c-49 -14 -112 -70 -138 -123 -26 -54 -29 -163 -6 -217 38
-91 113 -141 212 -142 49 -1 70 5 107 26 55 32 57 33 57 7 0 -18 7 -20 75 -20
l75 0 0 230 0 230 -81 0 c-68 0 -80 -2 -75 -15 7 -20 -6 -19 -48 6 -41 24
-125 32 -178 18z m198 -160 c13 -12 27 -37 30 -56 20 -107 -106 -177 -188
-104 -29 26 -33 36 -33 79 0 40 5 56 24 76 46 49 118 51 167 5z"/>
<path d="M3320 1119 c-96 -30 -144 -115 -108 -193 13 -30 40 -50 123 -91 60
-30 81 -59 53 -76 -23 -15 -64 -10 -111 16 l-47 24 -17 -27 c-45 -74 -45 -73
-33 -87 40 -48 219 -64 303 -27 51 23 72 50 82 104 15 81 -30 140 -135 179
-70 25 -88 42 -70 64 16 19 70 19 115 0 l35 -14 25 50 26 50 -37 15 c-47 20
-159 27 -204 13z"/>
<path d="M4605 604 c-9 -9 -13 -24 -10 -35 4 -11 2 -19 -4 -19 -6 0 -11 -4
-11 -10 0 -5 23 -10 50 -10 28 0 50 5 50 10 0 6 -13 10 -29 10 -29 0 -42 14
-34 38 3 6 16 12 29 12 14 0 22 4 19 10 -9 15 -42 12 -60 -6z"/>
<path d="M4000 422 c0 -205 -2 -212 -55 -212 -50 0 -55 13 -55 132 l0 108 -25
0 c-25 0 -25 -1 -25 -84 0 -118 -16 -155 -67 -156 -40 0 -53 35 -53 142 0 98
0 98 -25 98 -25 0 -25 0 -25 -98 0 -107 -13 -142 -54 -142 -46 0 -61 33 -64
141 -4 90 -6 99 -23 99 -17 0 -19 -8 -19 -92 0 -119 -11 -142 -68 -146 -67 -5
-72 4 -72 129 l0 109 -30 0 -30 0 0 -108 c0 -71 -4 -112 -12 -120 -9 -9 -209
-12 -839 -12 l-828 0 -15 22 c-12 17 -16 48 -16 120 l0 98 -81 0 c-54 0 -92
-5 -115 -16 -98 -47 -110 -183 -21 -248 40 -30 127 -29 159 1 l23 22 28 -25
28 -24 837 0 c742 0 840 2 860 16 20 14 24 14 44 0 32 -23 120 -21 149 3 23
19 24 19 48 0 30 -24 67 -24 106 -1 29 18 31 18 60 0 39 -24 76 -23 108 2 l26
21 21 -21 c25 -25 95 -27 128 -4 20 14 24 14 44 0 18 -13 57 -16 211 -16 215
0 237 6 257 66 15 44 7 127 -15 161 -22 33 -74 63 -110 63 -38 0 -104 -30
-129 -59 -11 -11 -23 -21 -28 -21 -4 0 -8 54 -8 120 l0 120 -25 0 -25 0 0
-200 0 -200 -48 0 c-26 0 -53 5 -60 12 -8 8 -12 67 -12 200 l0 188 -30 0 -30
0 0 -188z m-2450 -86 c0 -55 -4 -69 -26 -95 -41 -49 -108 -40 -139 19 -20 39
-19 62 6 94 27 35 52 45 112 45 l47 1 0 -64z m2899 29 c19 -19 25 -35 25 -73
1 -76 -8 -82 -135 -82 l-109 0 0 43 c0 36 6 48 38 79 71 70 133 81 181 33z"/>
<path d="M1401 537 c-17 -21 -3 -49 23 -45 15 2 21 10 21 28 0 28 -26 38 -44
17z"/>
<path d="M1500 536 c-18 -22 -5 -48 22 -44 17 2 23 10 23 28 0 29 -26 38 -45
16z"/>
<path d="M4610 330 l0 -170 25 0 25 0 0 170 0 170 -25 0 -25 0 0 -170z"/>
<path d="M806 292 c-3 -5 5 -19 18 -31 13 -13 26 -18 30 -13 3 5 -5 19 -18 31
-13 13 -26 18 -30 13z"/>
<path d="M3267 94 c-10 -11 -9 -42 3 -49 20 -12 51 6 48 28 -3 22 -36 35 -51
21z"/>
<path d="M3367 94 c-10 -11 -9 -42 3 -49 20 -12 51 6 48 28 -3 22 -36 35 -51
21z"/>
</g>
</svg>
